<svg xmlns="http://www.w3.org/2000/svg" viewBox="0 0 100 100" width="100" height="100">
  <g fill="none" stroke="#ccc" stroke-width="1" stroke-opacity="0.2">
    <path d="M50 0 v100 M0 50 h100" />
    <path d="M0 0 l100 100 M100 0 l-100 100" />
    <rect x="25" y="25" width="50" height="50" />
    <rect x="25" y="25" width="50" height="50" transform="rotate(45 50 50)" />
    
    <path d="M50 10 l15 15 M50 10 l-15 15 M50 90 l15 -15 M50 90 l-15 -15" />
    <path d="M10 50 l15 15 M10 50 l15 -15 M90 50 l-15 15 M90 50 l-15 -15" />
    
    <path d="M0 25 l25 25 l-25 25 M100 25 l-25 25 l25 25" />
    <path d="M25 0 l25 25 l25 -25 M25 100 l25 -25 l25 25" />
  </g>
</svg>